# xmcd CD database file
#
# Track frame offsets:
#	150
#	36674
#	56191
#	90101
#	121461
#	153587
#	182014
#	204030
#	233019
#	248171
#
# Disc length: 3815 seconds
#
# Revision: 0
# Processed by: cddbd v1.4PL0 Copyright (c) Steve Scherf et al.
# Submitted via: CDex 1.51
#
DISCID=7d0ee50a
DTITLE=LIsa Henry - LIve!! From 18th and Vine
DYEAR=2002
DGENRE=Jazz
TTITLE0=All Blues
TTITLE1=Witchcraft
TTITLE2=Skylark
TTITLE3=Monk's Dream
TTITLE4=Summertyime
TTITLE5=In A Sentimental Mood
TTITLE6=The Second Time Around
TTITLE7=Big Fat Daddy
TTITLE8=You'd Be So Nice To Come Home To
TTITLE9=Kansas City
EXTD=YEAR: 2002
EXTT0=
EXTT1=
EXTT2=
EXTT3=
EXTT4=
EXTT5=
EXTT6=
EXTT7=
EXTT8=
EXTT9=
PLAYORDER=
